<svg width="120" height="120" viewBox="0 0 120 120" fill="none" xmlns="http://www.w3.org/2000/svg">
<path d="M93.54 80.0161L106 54.9167L85.7778 50.3917M85.7778 50.3917L60.5 44.7368M85.7778 50.3917L90.8333 24.3769H70.6111M60.5 44.7368V80.0161M60.5 44.7368L35.2222 50.3917M35.2222 50.3917L15 54.9167L27.4651 80.0161M35.2222 50.3917L30.1667 24.3769H50.3889M50.3889 24.3769V9.10706H70.6111V24.3769M50.3889 24.3769H70.6111M15 95.6364L21.2942 93.1016C23.251 92.3137 25.3689 92.0169 27.4651 92.2369C29.5613 92.4568 31.5729 93.1868 33.3264 94.3639C35.9494 96.1248 39.1189 96.8655 42.2441 96.4478C45.3694 96.0302 48.2372 94.4827 50.3131 92.0938L50.49 91.8902C51.7384 90.4537 53.2774 89.3026 55.0038 88.5139C56.7303 87.7252 58.6042 87.3172 60.5 87.3172C62.3958 87.3172 64.2697 87.7252 65.9962 88.5139C67.7226 89.3026 69.2616 90.4537 70.51 91.8902L70.692 92.0938C72.7679 94.4827 75.6357 96.0302 78.7609 96.4478C81.8862 96.8655 85.0556 96.1248 87.6787 94.3639C89.4322 93.1868 91.4438 92.4568 93.54 92.2369C95.6361 92.0169 97.754 92.3137 99.7109 93.1016L106 95.6364" stroke="white" stroke-width="6" stroke-linecap="round" stroke-linejoin="round"/>
<path d="M15 110.79L21.2942 108.255C23.251 107.467 25.3689 107.17 27.4651 107.39C29.5613 107.61 31.5729 108.34 33.3264 109.517C35.9494 111.278 39.1189 112.019 42.2441 111.601C45.3694 111.184 48.2372 109.636 50.3131 107.247L50.49 107.044C51.7384 105.607 53.2774 104.456 55.0038 103.667C56.7303 102.879 58.6042 102.471 60.5 102.471C62.3958 102.471 64.2697 102.879 65.9962 103.667C67.7226 104.456 69.2616 105.607 70.51 107.044L70.692 107.247C72.7679 109.636 75.6357 111.184 78.7609 111.601C81.8862 112.019 85.0556 111.278 87.6787 109.517C89.4322 108.34 91.4438 107.61 93.54 107.39C95.6361 107.17 97.754 107.467 99.7109 108.255L106 110.79" stroke="white" stroke-width="6" stroke-linecap="round" stroke-linejoin="round"/>
</svg>
