<svg width="120" height="120" viewBox="0 0 120 120" fill="none" xmlns="http://www.w3.org/2000/svg">
<g clip-path="url(#clip0_1402_3174)">
<path d="M78.8959 39.0787L64.6107 53.364C64.2992 53.6767 63.9131 53.9049 63.489 54.027C63.0648 54.1491 62.6165 54.1611 62.1864 54.0618L25.2014 45.525C24.7727 45.426 24.326 45.4376 23.903 45.5586C23.4801 45.6796 23.0948 45.9061 22.7833 46.2167L20.0285 48.9715C19.7492 49.2508 19.5373 49.59 19.4089 49.9634C19.2804 50.3368 19.2388 50.7346 19.2872 51.1265C19.3356 51.5184 19.4727 51.8942 19.6882 52.2251C19.9036 52.5561 20.1917 52.8335 20.5305 53.0364L45.434 67.9737C45.7728 68.1766 46.0609 68.4541 46.2763 68.785C46.4917 69.116 46.6289 69.4917 46.6773 69.8836C46.7257 70.2755 46.6841 70.6733 46.5556 71.0467C46.4272 71.4202 46.2153 71.7594 45.936 72.0386L36.8757 81.0989C36.6139 81.3601 36.2994 81.5624 35.9531 81.6923C35.6068 81.8221 35.2368 81.8766 34.8678 81.8519L22.4711 81.0254C19.8387 80.854 18.651 84.2516 20.8182 85.7515L32.5935 93.9088C32.8493 94.0861 33.0712 94.308 33.2485 94.5638L41.4059 106.339C42.9027 108.509 46.3033 107.319 46.1289 104.689L45.3024 92.2926C45.2777 91.9229 45.3324 91.5522 45.4628 91.2053C45.5932 90.8584 45.7963 90.5435 46.0585 90.2816L55.1188 81.2213C55.3978 80.9425 55.7366 80.7309 56.1096 80.6026C56.4825 80.4743 56.8798 80.4325 57.2713 80.4806C57.6628 80.5287 58.0382 80.6653 58.369 80.8801C58.6998 81.0949 58.9774 81.3822 59.1806 81.7203L74.124 106.63C74.3272 106.968 74.6048 107.255 74.9356 107.47C75.2664 107.685 75.6418 107.821 76.0333 107.87C76.4248 107.918 76.822 107.876 77.195 107.748C77.568 107.619 77.9068 107.408 78.1858 107.129L80.9406 104.374C81.2513 104.063 81.4777 103.677 81.5987 103.254C81.7197 102.831 81.7313 102.385 81.6324 101.956L73.0986 64.9679C72.9995 64.5385 73.0113 64.091 73.1328 63.6674C73.2544 63.2439 73.4817 62.8582 73.7934 62.5467L88.0787 48.2614C89.2964 47.0437 89.9805 45.3921 89.9805 43.67C89.9805 41.9479 89.2964 40.2964 88.0787 39.0787C86.861 37.861 85.2094 37.1769 83.4873 37.1769C81.7652 37.1769 80.1136 37.861 78.8959 39.0787Z" stroke="white" stroke-width="6" stroke-linecap="round" stroke-linejoin="round"/>
<path d="M80.6506 94.6504H104.976C108.201 94.6504 114.651 92.7218 114.651 85.0075C114.651 77.2932 108.201 75.3647 104.976 75.3647C104.976 72.1504 101.751 64.6504 94.2256 64.6504C88.2056 64.6504 84.5506 68.9361 83.4756 71.079C81.3878 71.079 78.1933 71.7405 75.6506 73.7646" stroke="white" stroke-width="6" stroke-linecap="round" stroke-linejoin="round"/>
<path d="M19.8506 48.6504C15.4514 48.6504 6.65063 45.979 6.65063 35.2932C6.65063 24.6075 15.4514 21.9361 19.8506 21.9361C21.0506 19.5075 25.1306 14.6504 31.8506 14.6504C40.2506 14.6504 43.8506 23.1504 43.8506 26.7932C47.4506 26.7932 54.6506 28.979 54.6506 37.7218C54.6506 46.4647 47.4506 48.6504 43.8506 48.6504H39.1506" stroke="white" stroke-width="6" stroke-linecap="round" stroke-linejoin="round"/>
</g>
<defs>
<clipPath id="clip0_1402_3174">
<rect width="120" height="120" fill="white"/>
</clipPath>
</defs>
</svg>
