<svg width="120" height="120" viewBox="0 0 120 120" fill="none" xmlns="http://www.w3.org/2000/svg">
<path d="M111 72.8571V92.1429C111 93.2795 110.547 94.3696 109.741 95.1733C108.935 95.9771 107.842 96.4286 106.702 96.4286H100.255M111 72.8571H80.9149M111 72.8571L103.539 56.1171C103.201 55.3593 102.65 54.7155 101.953 54.2636C101.256 53.8118 100.442 53.5713 99.6106 53.5714H80.9149M100.255 96.4286C100.255 98.7019 99.3497 100.882 97.7377 102.489C96.1257 104.097 93.9393 105 91.6596 105C89.3798 105 87.1935 104.097 85.5815 102.489C83.9694 100.882 83.0638 98.7019 83.0638 96.4286M100.255 96.4286C100.255 94.1553 99.3497 91.9751 97.7377 90.3677C96.1257 88.7602 93.9393 87.8571 91.6596 87.8571C89.3798 87.8571 87.1935 88.7602 85.5815 90.3677C83.9694 91.9751 83.0638 94.1553 83.0638 96.4286M80.9149 72.8571V96.4286M80.9149 72.8571V53.5714M80.9149 53.5714V38.7857C80.9149 37.6491 80.4621 36.559 79.6561 35.7553C78.8501 34.9515 77.7569 34.5 76.617 34.5H14.2979C13.158 34.5 12.0648 34.9515 11.2588 35.7553C10.4528 36.559 10 37.6491 10 38.7857V92.1429C10 93.2795 10.4528 94.3696 11.2588 95.1733C12.0648 95.9771 13.158 96.4286 14.2979 96.4286H20.7447M20.7447 96.4286C20.7447 98.7019 21.6503 100.882 23.2623 102.489C24.8743 104.097 27.0607 105 29.3404 105C31.6202 105 33.8065 104.097 35.4185 102.489C37.0306 100.882 37.9362 98.7019 37.9362 96.4286M20.7447 96.4286C20.7447 94.1553 21.6503 91.9751 23.2623 90.3677C24.8743 88.7602 27.0607 87.8571 29.3404 87.8571C31.6202 87.8571 33.8065 88.7602 35.4185 90.3677C37.0306 91.9751 37.9362 94.1553 37.9362 96.4286M37.9362 96.4286H80.9149M80.9149 96.4286H83.0638" stroke="white" stroke-width="6" stroke-linecap="round" stroke-linejoin="round"/>
<line x1="29" y1="35" x2="29" y2="85" stroke="white" stroke-width="6"/>
<line x1="46" y1="35" x2="46" y2="95" stroke="white" stroke-width="6"/>
<line x1="63" y1="35" x2="63" y2="95" stroke="white" stroke-width="6"/>
<line x1="93" y1="52" x2="93" y2="73" stroke="white" stroke-width="6"/>
<path d="M68 30.8214C68 21.0786 76.2508 18.6429 80.375 18.6429C81.5 16.4286 85.325 12 91.625 12C99.5 12 102.875 19.75 102.875 23.0714C106.25 23.0714 113 25.0643 113 33.0357C113 41.0071 106.25 43 102.875 43H81.5" stroke="white" stroke-width="6" stroke-linecap="round" stroke-linejoin="round"/>
<path d="M6 108H113" stroke="white" stroke-width="6" stroke-linecap="round"/>
</svg>
