<svg width="120" height="120" viewBox="0 0 120 120" fill="none" xmlns="http://www.w3.org/2000/svg">
<path d="M24.3333 106H55M39.6667 106V14M39.6667 14L9 44.6667H101M39.6667 14L90.7778 44.6667" stroke="white" stroke-width="6" stroke-linecap="round" stroke-linejoin="round"/>
<path d="M86 47V54.3551C87.5822 54.3551 89.129 54.8138 90.4446 55.6734C91.7602 56.5329 92.7855 57.7546 93.391 59.184C93.9965 60.6134 94.155 62.1862 93.8463 63.7036C93.5376 65.221 92.7757 66.6149 91.6568 67.7088C90.538 68.8028 89.1126 69.5479 87.5607 69.8497C86.0089 70.1515 84.4003 69.9966 82.9385 69.4045C81.4767 68.8125 80.2273 67.8099 79.3482 66.5235C78.4692 65.2371 78 63.7247 78 62.1775" stroke="white" stroke-width="6" stroke-linecap="round" stroke-linejoin="round"/>
<mask id="path-3-inside-1_1402_3175" fill="white">
<rect x="62" y="79" width="50" height="30" rx="2"/>
</mask>
<rect x="62" y="79" width="50" height="30" rx="2" stroke="white" stroke-width="12" stroke-linejoin="round" mask="url(#path-3-inside-1_1402_3175)"/>
<line x1="79" y1="82" x2="79" y2="105" stroke="white" stroke-width="6"/>
<line x1="29" y1="24" x2="29" y2="105" stroke="white" stroke-width="6"/>
<line x1="50" y1="19" x2="50" y2="105" stroke="white" stroke-width="6"/>
<line x1="94" y1="82" x2="94" y2="105" stroke="white" stroke-width="6"/>
</svg>
